<svg width="108" height="48" viewBox="0 0 108 48" fill="none" xmlns="http://www.w3.org/2000/svg">
<path d="M6.6281 48H0.012843L0 47.4874C1.12805 47.4874 2.0078 46.6151 2.00994 45.487L2.26894 2.56434C2.27109 1.43629 1.34424 0.512654 0.216192 0.512654L0.254721 0H6.86998L6.88282 0.512654C5.75477 0.512654 4.88572 1.43629 4.88465 2.56434L4.79368 21.7102H22.1393L22.2185 2.56434C22.2196 1.43629 21.3452 0.512654 20.2172 0.512654L20.2032 0H26.8699L26.8313 0.512654C25.7547 0.512654 24.8342 1.43629 24.8332 2.56434L24.6255 45.487C24.6234 46.6151 25.4871 47.4874 26.6152 47.4874L26.628 48H19.9614L19.9485 47.4874C21.0766 47.4874 22.0077 46.6151 22.0098 45.487L22.1522 22.2228L4.80224 22.2346L4.62565 45.4881C4.62458 46.6162 5.53858 47.4884 6.66663 47.4884L6.6281 48Z" fill="#0A0908"/>
<path d="M86.7839 48H80.1686L80.1558 47.4874C81.2839 47.4874 82.1636 46.6151 82.1657 45.487L82.4247 2.56434C82.4269 1.43629 81.5 0.512654 80.372 0.512654L80.4105 0H87.0258L87.0386 0.512654C85.9106 0.512654 85.0415 1.43629 85.0405 2.56434L84.9495 21.7102H102.295L102.374 2.56434C102.375 1.43629 101.501 0.512654 100.373 0.512654L100.359 0H107.026L106.987 0.512654C105.91 0.512654 104.99 1.43629 104.989 2.56434L104.781 45.487C104.779 46.6151 105.643 47.4874 106.771 47.4874L106.784 48H100.117L100.104 47.4874C101.232 47.4874 102.163 46.6151 102.166 45.487L102.308 22.2228L84.958 22.2346L84.7814 45.4881C84.7804 46.6162 85.6944 47.4884 86.8224 47.4884L86.7839 48Z" fill="#0A0908"/>
<path d="M35.296 48H28.6807L28.6668 47.4874C29.7949 47.4874 30.6757 46.6151 30.7281 45.487L30.9357 2.56434C30.9368 1.43629 30.011 0.512654 28.883 0.512654L28.9215 0H35.5368L35.5507 0.512654C34.4226 0.512654 33.5536 1.43629 33.5525 2.56434L33.2925 45.487C33.2914 46.6151 34.2054 47.4874 35.3334 47.4874L35.296 48Z" fill="#0A0908"/>
<path d="M37.6431 23.6409C37.8935 10.6673 48.626 0.0513724 61.6393 0C68.1518 0 74.0007 2.51297 78.2604 6.61526H78.3117L78.2786 13.2819H77.7145L77.7295 12.6665C77.7809 9.48677 76.2783 6.46115 73.7471 4.56358C70.3597 2.05062 66.2168 0.512655 61.7559 0.512655C49.9617 0.512655 40.3347 11.0247 40.2374 23.9995C40.1913 36.9731 49.6931 47.4863 61.5387 47.4863H75.4873L75.6393 22.2218H59.7942L59.8209 21.6577H60.3336H78.2304L78.209 22.0163L78.0645 47.9989H61.5012C59.8081 47.9989 58.1331 47.8448 56.5138 47.4863C45.5822 45.1799 37.4108 35.3335 37.6431 23.6409Z" fill="#0A0908"/>
<path d="M89.3332 29.6675C90.3853 29.6675 91.3378 30.2947 92.0239 31.3328C92.0239 31.3328 92.0239 31.3328 92.0389 31.3328C92.3032 31.6849 93.2119 33.5268 92.1598 36.1318L92.0335 36.4251L87.1114 47.8041H91.2019C92.1373 47.8041 92.9004 46.7852 92.9058 45.5126L92.91 45.4538H93.0567L93.047 47.9999H86.1653L86.2637 47.8041L91.5519 35.5625C92.315 33.7601 91.9436 31.4687 90.6336 30.3717C90.2419 30.0389 89.8031 29.8623 89.3354 29.8623C87.8745 29.8623 86.6319 31.6838 86.2884 34.1519C86.2627 34.3477 86.2381 34.5436 86.2156 34.7587L86.2209 34.8764H86.0743L86.0807 31.0963H86.2274C86.2306 31.2921 86.3536 31.4099 86.4703 31.4099C86.5292 31.4099 86.5805 31.3703 86.6255 31.2921C86.9102 30.9004 87.2195 30.5676 87.5566 30.3128C88.0875 29.9029 88.6911 29.6675 89.3332 29.6675Z" fill="#0A0908"/>
<path d="M97.3805 29.6675C98.4326 29.6675 99.3851 30.2947 100.071 31.3328C100.071 31.3328 100.071 31.3328 100.086 31.3328C100.35 31.6849 101.259 33.5268 100.207 36.1318L100.081 36.4251L95.1587 47.8041H99.2492C100.185 47.8041 100.948 46.7852 100.953 45.5126L100.957 45.4538H101.104L101.094 47.9999H94.2126L94.311 47.8041L99.5992 35.5625C100.362 33.7601 99.9909 31.4687 98.6809 30.3717C98.2892 30.0389 97.8504 29.8623 97.3827 29.8623C95.9218 29.8623 94.6792 31.6838 94.3356 34.1519C94.3099 34.3477 94.2843 34.5436 94.2629 34.7587L94.2682 34.8764H94.1216L94.128 31.0963H94.2746C94.2778 31.2921 94.4009 31.4099 94.5176 31.4099C94.5764 31.4099 94.6278 31.3703 94.6728 31.2921C94.9574 30.9004 95.2668 30.5676 95.6039 30.3128C96.1347 29.9029 96.7373 29.6675 97.3805 29.6675Z" fill="#0A0908"/>
</svg>
