<svg width="126" height="34" viewBox="0 0 126 34" fill="none" xmlns="http://www.w3.org/2000/svg">
<g clip-path="url(#clip0_321_156)">
<path d="M53.9914 17.711L45.8917 1.453H42.4288L52.4653 21.5261H53.3457L62.9127 1.453H61.5628L53.9914 17.711Z" fill="#0A0908"/>
<path d="M27.2269 11.8417H35.444V10.7265H27.3443V2.50948H39.1417C39.0243 2.15732 38.7895 1.80516 38.6721 1.453H24.0575V21.5848H39.3178C39.4938 21.2326 39.7286 20.8218 39.9634 20.4696H27.2269V11.8417Z" fill="#0A0908"/>
<path d="M3.33903 11.3135V2.50948H10.6757C12.9647 2.3921 14.9016 4.15289 15.019 6.38324V6.7354C15.019 9.20052 13.0234 11.2548 10.5583 11.2548L3.33903 11.3135ZM18.071 6.79409C18.071 3.44857 14.4321 1.453 11.7909 1.453H0.110901V21.5848H3.33903V12.37H9.14967L16.6624 21.5261H20.6536L12.5539 12.1352C15.8994 11.7243 18.071 9.55268 18.071 6.79409Z" fill="#0A0908"/>
<path d="M90.0874 0.57289C89.383 0.514196 88.6787 0.514196 87.9744 0.57289C81.9877 1.10113 76.9988 5.7379 76.9988 10.9616C76.9988 14.8354 79.5813 18.6504 84.8637 19.4134C81.2834 16.7722 80.5204 13.8963 80.5204 11.079C80.5204 7.08784 83.2789 1.80545 89.0309 1.74676C94.372 1.68806 97.4827 6.50091 97.4827 11.0203C97.4827 13.8963 96.5436 17.8287 92.3764 19.7069C91.3199 20.1764 90.1461 20.4112 88.9722 20.4112H69.4273V1.3946H66.3166V21.5851H90.2048C96.5436 21.5851 101.004 16.0679 101.004 10.9029C101.004 5.7379 96.1915 1.10113 90.0874 0.57289Z" fill="#0A0908"/>
<path d="M120.49 16.1263L107.167 1.453H104.526V21.5261H105.817V4.73983L121.253 21.5261H121.782V1.453H120.49V16.1263Z" fill="#0A0908"/>
<path d="M2.57602 29.9784H1.28477V27.7481H2.57602C3.6325 27.7481 4.04335 28.1002 4.04335 28.8632C4.04335 29.6263 3.5738 29.9784 2.57602 29.9784ZM2.57602 26.6916H0.110901V33.6174H1.28477V31.0349H2.45863C3.86727 31.0349 5.15852 30.5653 5.15852 28.8632C5.15852 27.1611 3.98466 26.6916 2.57602 26.6916Z" fill="#0A0908"/>
<path d="M12.0253 29.861V27.7481H13.2578C14.2556 27.7481 14.7252 27.9241 14.7252 28.8045C14.7252 29.6849 14.2556 29.861 13.2578 29.861H12.0253ZM15.9577 28.8045C15.9577 27.3959 14.9599 26.6916 13.3752 26.6916H10.9101V33.5587H12.0253V30.8588H13.1991L14.7252 33.5587H15.9577L14.373 30.6827C15.3121 30.5653 16.0164 29.7436 15.9577 28.8045Z" fill="#0A0908"/>
<path d="M24.6442 32.6778C23.4703 32.6778 22.7073 31.7974 22.7073 30.154C22.7073 28.5105 23.4703 27.6301 24.6442 27.6301C25.8181 27.6301 26.5811 28.5105 26.5811 30.154C26.5811 31.7974 25.7594 32.6778 24.6442 32.6778ZM24.6442 26.5737C22.8834 26.5737 21.5334 27.8062 21.5334 30.0953C21.5334 32.3843 22.9421 33.6756 24.6442 33.6756C26.3463 33.6756 27.7549 32.443 27.7549 30.0953C27.7549 27.7475 26.405 26.5737 24.6442 26.5737Z" fill="#0A0908"/>
<path d="M33.5659 26.6916V33.6174H34.7398V30.6827H37.0288V29.6263H34.7398V27.8068H37.8505V26.6916H33.5659ZM43.5438 26.6916V33.6174H48.1805V32.5609H44.7176V30.5067H47.0654V29.5089H44.7176V27.8068H48.0045V26.6916H43.5438Z" fill="#0A0908"/>
<path d="M56.3971 29.6258C55.282 29.2736 54.8124 29.0388 54.8124 28.4519C54.8124 27.9824 55.2233 27.6889 55.9863 27.6889C56.6906 27.6889 57.3949 28.041 57.7471 28.6867L58.5688 28.0997C58.0992 27.102 57.0428 26.5737 55.9863 26.6324C54.5777 26.6324 53.6386 27.3954 53.6386 28.5693C53.6386 29.9192 54.695 30.2127 55.9863 30.6822C57.1015 31.0344 57.5123 31.3279 57.5123 31.8561C57.5123 32.3844 56.9254 32.7365 56.1037 32.7365C55.282 32.7365 54.5777 32.267 54.2255 31.5626L53.3451 32.0322C53.8146 33.1474 54.9298 33.8517 56.1624 33.793C57.8058 33.793 58.7449 32.9126 58.7449 31.7387C58.8036 30.3888 57.7471 29.9779 56.3971 29.6258Z" fill="#0A0908"/>
<path d="M67.1969 29.6262C66.0817 29.274 65.6121 29.0392 65.6121 28.4523C65.6121 27.9828 66.023 27.6893 66.786 27.6893C67.4903 27.6893 68.1946 28.0415 68.5468 28.6871L69.3685 28.1001C68.899 27.1611 67.8425 26.5741 66.786 26.6328C65.3774 26.6328 64.4383 27.3958 64.4383 28.5697C64.4383 29.9196 65.4947 30.2131 66.786 30.6827C67.9012 31.0348 68.312 31.3283 68.312 31.8565C68.312 32.3848 67.7838 32.7369 66.9034 32.7369C66.0817 32.7369 65.3774 32.2674 65.0252 31.5631L64.2035 31.9739C64.673 33.0891 65.7882 33.7934 67.0208 33.7347C68.6642 33.7347 69.6033 32.8543 69.6033 31.6804C69.6033 30.3892 68.5468 29.9196 67.1969 29.6262Z" fill="#0A0908"/>
<path d="M75.5316 26.6916H76.7055V33.6174H75.5316V26.6916Z" fill="#0A0908"/>
<path d="M85.6855 32.6778C84.5116 32.6778 83.7486 31.7974 83.7486 30.154C83.7486 28.5105 84.5116 27.6301 85.6855 27.6301C86.8594 27.6301 87.6224 28.5105 87.6224 30.154C87.6224 31.7974 86.8594 32.6778 85.6855 32.6778ZM85.6855 26.5737C83.9247 26.5737 82.5748 27.8062 82.5748 30.0953C82.5748 32.3843 83.9834 33.6756 85.6855 33.6756C87.3876 33.6756 88.7963 32.443 88.7963 30.0953C88.7963 27.7475 87.4463 26.5737 85.6855 26.5737Z" fill="#0A0908"/>
<path d="M99.1263 26.6916V31.5631H99.0676L95.8395 26.6916H94.6656V33.6174H95.7221V28.5698L99.1263 33.6174H100.183V26.6916H99.1263ZM108.752 28.1589L109.75 30.9762H107.813L108.752 28.1589ZM108.282 26.6916L105.817 33.6174H106.932L107.519 32.0327H110.161L110.748 33.6174H111.921L109.515 26.6916H108.282ZM117.439 26.6916V33.6174H121.782V32.5609H118.671V26.6916H117.439Z" fill="#0A0908"/>
<path d="M125.69 28.3003C125.69 28.8687 125.488 29.3545 125.085 29.7578C124.684 30.1595 124.198 30.3604 123.63 30.3604C123.062 30.3604 122.576 30.1595 122.173 29.7578C121.771 29.3545 121.57 28.8687 121.57 28.3003C121.57 27.7319 121.771 27.2469 122.173 26.8452C122.576 26.4419 123.062 26.2403 123.63 26.2403C124.198 26.2403 124.684 26.4419 125.085 26.8452C125.488 27.2469 125.69 27.7319 125.69 28.3003ZM125.235 28.3003C125.235 27.8573 125.078 27.4771 124.764 27.1596C124.451 26.842 124.073 26.6832 123.63 26.6832C123.187 26.6832 122.808 26.842 122.494 27.1596C122.181 27.4771 122.025 27.8573 122.025 28.3003C122.025 28.7433 122.181 29.1235 122.494 29.4411C122.808 29.7586 123.187 29.9174 123.63 29.9174C124.073 29.9174 124.451 29.7586 124.764 29.4411C125.078 29.1235 125.235 28.7433 125.235 28.3003ZM124.745 29.2767H124.123L123.525 28.5242H123.33V29.2767H122.844V27.2262H123.592C123.73 27.2262 123.841 27.2318 123.925 27.2429C124.01 27.254 124.093 27.2826 124.175 27.3286C124.268 27.3826 124.334 27.4461 124.376 27.5192C124.417 27.5922 124.437 27.6851 124.437 27.7978C124.437 27.9502 124.396 28.0741 124.314 28.1693C124.233 28.2646 124.128 28.3392 123.999 28.3932L124.745 29.2767ZM123.897 27.8359C123.897 27.793 123.888 27.7541 123.871 27.7192C123.853 27.6827 123.824 27.6533 123.783 27.6311C123.746 27.6105 123.705 27.597 123.659 27.5906C123.613 27.5843 123.554 27.5811 123.482 27.5811H123.33V28.1598H123.447C123.52 28.1598 123.587 28.1542 123.649 28.1431C123.711 28.1304 123.759 28.1098 123.794 28.0812C123.829 28.0558 123.855 28.0233 123.871 27.9836C123.888 27.9439 123.897 27.8947 123.897 27.8359Z" fill="#0A0908"/>
</g>
<defs>
<clipPath id="clip0_321_156">
<rect width="126" height="32.972" fill="white" transform="translate(0 0.51416)"/>
</clipPath>
</defs>
</svg>
