<svg width="78" height="79" viewBox="0 0 78 79" fill="none" xmlns="http://www.w3.org/2000/svg">
<g id="american-crew&#208;&#184;Cofficial-supplier-to-men-logo-vector 1">
<g id="Group">
<path id="Vector" d="M16.5296 25.2123C14.2994 25.2123 10.1848 26.2698 10.1848 39.3079C10.1848 52.3579 14.2994 53.6197 16.5296 53.6197C17.5791 53.6197 18.2232 53.4034 18.2232 53.4034V51.8773C17.9012 51.9494 17.6149 51.9854 17.2571 51.9854C15.3131 51.9854 12.4628 50.279 12.4628 39.3079C12.4628 28.553 15.2058 26.8466 17.1498 26.8466C17.5434 26.8466 17.9489 26.9548 18.2351 27.0629V25.4647C18.2232 25.4767 17.5791 25.2123 16.5296 25.2123Z" fill="#0A0908"/>
<path id="Vector_2" d="M25.1525 25.3926H23.459V53.4395H25.7011V43.5257C26.4525 44.463 27.3946 46.0252 28.1221 47.8157C28.7662 49.45 29.1359 51.625 29.1359 53.4515H31.223C31.223 51.5649 30.8294 49.2337 29.8872 46.9505C29.1716 45.2081 28.2295 43.7901 27.3589 42.7326C28.6946 41.7833 31.545 39.0556 31.545 33.612C31.5331 26.8467 28.0625 25.3926 25.1525 25.3926ZM25.6892 41.7833V27.0389C27.2396 27.0389 29.2551 27.9402 29.2551 33.612C29.2551 39.4281 26.4047 41.531 25.6892 41.7833Z" fill="#0A0908"/>
<path id="Vector_3" d="M44.2228 25.3926H37.1982V41.9996H36.2918V43.6339H37.1982V53.4515H44.2228V51.8172H39.4284V43.6339H43.1136V41.9996H39.4284V27.0269H44.2228V25.3926Z" fill="#0A0908"/>
<path id="Vector_4" d="M64.2348 25.3926H62.3266L59.512 44.5832L56.6974 25.3926H55.6599L52.8452 44.5832L50.0306 25.3926H47.8243L52.1177 53.4515H53.2746L56.0534 35.2823L58.7965 53.4515H59.9414L64.2348 25.3926Z" fill="#0A0908"/>
<path id="Vector_5" d="M11.294 10.576L11.5802 12.7751H11.0078L11.294 10.576ZM10.972 9.02588L10.1848 14.2892H10.8169L10.9362 13.3519H11.6518L11.783 14.2892H12.4508L11.6637 9.02588H10.972Z" fill="#0A0908"/>
<path id="Vector_6" d="M20.1314 9.02588L19.1654 11.7657L18.1993 9.02588H17.8535V14.2892H18.5452V11.4773L19.0103 12.8592H19.3204L19.7855 11.4773V14.2892H20.4773V9.02588H20.1314Z" fill="#0A0908"/>
<path id="Vector_7" d="M26.1783 9.02588V11.982H25.9517V12.5588H26.1783V14.2892H27.8956V13.7124H26.8938V12.5588H27.681V11.982H26.8938V9.60268H27.8956V9.02588H26.1783Z" fill="#0A0908"/>
<path id="Vector_8" d="M33.8945 9.02588H33.3339V14.2892H34.0495V12.6549C34.1807 12.7991 34.3477 13.0515 34.4669 13.3639C34.5743 13.6523 34.6339 13.9888 34.6339 14.2892H35.3375C35.3375 13.9287 35.2898 13.5201 35.1229 13.1115C34.9917 12.7751 34.7889 12.4867 34.6339 12.2944C34.8724 12.1262 35.3852 11.6335 35.3852 10.6121C35.3733 9.42243 34.6577 9.02588 33.8945 9.02588ZM34.0495 11.9339V9.61469C34.3715 9.61469 34.6577 9.84301 34.6577 10.6241C34.6577 11.5133 34.2045 11.9099 34.0495 11.9339Z" fill="#0A0908"/>
<path id="Vector_9" d="M41.6348 9.02588H40.9193V14.2892H41.6348V9.02588Z" fill="#0A0908"/>
<path id="Vector_10" d="M48.6592 8.98987C48.1226 8.98987 47.2281 9.20617 47.2281 11.6455C47.2281 14.0849 48.1226 14.3132 48.6592 14.3132C48.862 14.3132 49.0051 14.2652 49.0051 14.2652V13.7004C48.9335 13.7124 48.862 13.7244 48.7785 13.7244C48.4565 13.7244 47.9437 13.4961 47.9437 11.6335C47.9437 9.78297 48.4565 9.55465 48.7666 9.55465C48.862 9.55465 48.9335 9.57868 49.0051 9.5907V9.02592C49.0051 9.03794 48.8501 8.98987 48.6592 8.98987Z" fill="#0A0908"/>
<path id="Vector_11" d="M55.4692 10.576L55.7554 12.7751H55.1829L55.4692 10.576ZM55.1472 9.02588L54.36 14.2892H54.9921L55.1114 13.3519H55.827L55.9581 14.2892H56.626L55.8389 9.02588H55.1472Z" fill="#0A0908"/>
<path id="Vector_12" d="M63.5435 9.02588V12.0421L62.3866 9.02588H62.0408V14.2892H62.7325V11.285L63.9013 14.2892H64.2471V9.02588H63.5435Z" fill="#0A0908"/>
<path id="Vector_13" d="M11.9024 64.4586C11.4492 64.4586 11.0318 64.6148 10.7217 64.8791C10.3639 65.2036 10.1731 65.6843 10.1731 66.2611C10.1731 66.7898 10.3401 67.2464 10.6382 67.5709C10.9483 67.8953 11.3777 68.0756 11.8786 68.0756C12.9281 68.0756 13.6079 67.3546 13.6079 66.225C13.6079 65.6963 13.4409 65.2396 13.107 64.9152C12.8207 64.6268 12.3795 64.4586 11.9024 64.4586ZM11.9024 67.703C11.5088 67.703 11.1749 67.5468 10.9722 67.2584C10.7933 67.0061 10.6859 66.6576 10.6859 66.2731C10.6859 65.8645 10.7813 65.516 10.9722 65.2757C11.1868 64.9873 11.4969 64.8551 11.9024 64.8551C12.2721 64.8551 12.5822 64.9873 12.7969 65.2396C12.9996 65.48 13.107 65.8285 13.107 66.237C13.107 66.5254 13.0593 67.0421 12.7253 67.3906C12.5226 67.5949 12.2483 67.703 11.9024 67.703Z" fill="#0A0908"/>
<path id="Vector_14" d="M15.0986 64.5669C14.5142 64.5669 14.5023 65.0235 14.5023 65.2278V65.6844H14.1207V66.0209H14.5023V67.9916H14.8959V66.0209H15.3252V65.6844H14.8959V65.2999C14.8959 65.1317 14.8959 64.9034 15.1702 64.9034C15.2179 64.9034 15.2894 64.9154 15.3849 64.9274H15.3968V64.615H15.3849L15.3371 64.603C15.2537 64.5789 15.1821 64.5669 15.0986 64.5669Z" fill="#0A0908"/>
<path id="Vector_15" d="M16.6728 64.5669C16.0884 64.5669 16.0765 65.0235 16.0765 65.2278V65.6844H15.6949V66.0209H16.0765V67.9916H16.4701V66.0209H16.8994V65.6844H16.4581V65.2999C16.4581 65.1317 16.4581 64.9034 16.7324 64.9034C16.7682 64.9034 16.8398 64.9154 16.9471 64.9274H16.959V64.615H16.9471L16.8875 64.603C16.8398 64.5789 16.7563 64.5669 16.6728 64.5669Z" fill="#0A0908"/>
<path id="Vector_16" d="M17.83 65.6843H17.4365V67.9915H17.83V65.6843Z" fill="#0A0908"/>
<path id="Vector_17" d="M17.83 64.543H17.4365V65.0117H17.83V64.543Z" fill="#0A0908"/>
<path id="Vector_18" d="M19.559 65.6123C19.2012 65.6123 18.915 65.7445 18.7242 65.9968C18.5572 66.2131 18.4618 66.5256 18.4618 66.862C18.4618 67.1745 18.5572 67.4629 18.7122 67.6672C18.915 67.9195 19.2131 68.0517 19.5948 68.0517C20.0361 68.0517 20.3461 67.8835 20.525 67.547C20.6085 67.3788 20.6443 67.2586 20.6562 67.1625V67.1504L20.2269 67.1144V67.1264C20.203 67.2946 20.1434 67.7513 19.5948 67.7513C19.3563 67.7513 19.1654 67.6431 19.0343 67.4508C18.9388 67.3066 18.8911 67.0904 18.8911 66.838C18.8911 66.5616 18.9627 65.9247 19.5709 65.9247C20.048 65.9247 20.1434 66.2852 20.1673 66.4415V66.4535L20.5966 66.4174H20.6085V66.4054C20.4535 65.6844 19.8214 65.6123 19.559 65.6123Z" fill="#0A0908"/>
<path id="Vector_19" d="M21.6462 65.6843H21.2526V67.9915H21.6462V65.6843Z" fill="#0A0908"/>
<path id="Vector_20" d="M21.6462 64.543H21.2526V65.0117H21.6462V64.543Z" fill="#0A0908"/>
<path id="Vector_21" d="M23.2205 65.6123C22.8508 65.6123 22.5765 65.7565 22.4333 66.0209C22.3618 66.1531 22.3499 66.2612 22.3379 66.3453V66.3814L22.7553 66.4054H22.7673V66.3934C22.7673 66.2732 22.7673 65.9247 23.2443 65.9247C23.7452 65.9247 23.7452 66.3213 23.7452 66.5496V66.5977L23.3994 66.6217C22.6719 66.6818 22.4572 66.862 22.3379 67.0303C22.2783 67.1264 22.2306 67.2466 22.2306 67.3788C22.2306 67.7633 22.5645 68.0397 23.0177 68.0397C23.4351 68.0397 23.6737 67.7993 23.7929 67.6792C23.8287 67.8955 23.9599 68.0036 24.1984 68.0036C24.2938 68.0036 24.3535 67.9916 24.4131 67.9796L24.4489 67.9676H24.4608V67.6071H24.4489C24.4131 67.6191 24.3654 67.6311 24.3296 67.6311C24.1865 67.6311 24.1865 67.535 24.1746 67.3187V66.5616C24.1746 66.2732 24.1865 65.9968 23.9241 65.7805C23.7095 65.6604 23.4232 65.6123 23.2205 65.6123ZM23.0893 67.7152C22.7792 67.7152 22.6719 67.535 22.6719 67.3788C22.6719 67.2346 22.7315 67.0663 23.1608 66.9702C23.3636 66.9221 23.5425 66.8981 23.6737 66.8741L23.7452 66.862C23.7452 67.1865 23.7452 67.2346 23.6856 67.3667C23.5783 67.5951 23.3636 67.7152 23.0893 67.7152Z" fill="#0A0908"/>
<path id="Vector_22" d="M25.3555 64.543H24.9619V67.9918H25.3555V64.543Z" fill="#0A0908"/>
<path id="Vector_23" d="M29.3384 64.4586C29.1953 64.4586 28.7659 64.4586 28.42 64.747C28.2769 64.8671 28.11 65.0834 28.11 65.4199C28.11 66.1529 28.8732 66.3091 29.3264 66.4053L29.6127 66.4653C29.9228 66.5254 30.2567 66.6336 30.2567 67.0301C30.2567 67.4387 29.9228 67.703 29.4219 67.703C29.1356 67.703 28.8971 67.6309 28.7301 67.4747C28.4797 67.2464 28.4678 66.946 28.4558 66.8258V66.8138L27.9549 66.8739H27.943V66.8859C27.9788 67.3666 28.1934 67.7151 28.587 67.9073C28.8136 68.0155 29.0879 68.0756 29.398 68.0756C29.7796 68.0756 30.0897 67.9914 30.3283 67.8232C30.6145 67.6309 30.7695 67.3426 30.7695 66.9821C30.7695 66.7537 30.698 66.3332 30.1732 66.1169C30.0539 66.0688 29.9347 66.0327 29.7319 65.9847C29.6962 65.9727 29.6723 65.9727 29.6365 65.9606L29.2549 65.8645C28.9567 65.7924 28.5989 65.7083 28.5989 65.3358C28.5989 65.0954 28.8017 64.807 29.3622 64.807C29.6127 64.807 29.8154 64.8551 29.9585 64.9753C30.209 65.1675 30.2209 65.4319 30.2328 65.5401V65.5521L30.7099 65.516V65.504C30.6741 65.3238 30.6145 64.9512 30.2686 64.6989C29.9585 64.4826 29.5888 64.4586 29.3384 64.4586Z" fill="#0A0908"/>
</g>
<g id="Group_2">
<path id="Vector_24" d="M33.3336 65.6845H32.9281V66.8381C32.9281 67.1145 32.9281 67.2827 32.785 67.4509C32.6776 67.5831 32.4987 67.6673 32.284 67.6673C32.1409 67.6673 31.8786 67.6192 31.8428 67.3188C31.8308 67.2587 31.8308 67.2467 31.8308 67.0063V65.6845H31.4254V67.0304C31.4254 67.4149 31.4254 67.6192 31.5923 67.8114C31.6877 67.9196 31.8547 68.0518 32.1529 68.0518C32.5941 68.0518 32.8327 67.7874 32.9161 67.6673V68.0037H33.3216V65.6845H33.3336Z" fill="#0A0908"/>
<path id="Vector_25" d="M35.2894 65.6122C35.0867 65.6122 34.8482 65.6843 34.6812 65.8045C34.6096 65.8645 34.5619 65.9126 34.5023 65.9727L34.4785 65.9967V65.6843H34.073V69.073H34.4785V67.7391C34.6574 67.9554 34.9197 68.0636 35.2298 68.0636C35.8858 68.0636 36.3032 67.5829 36.3032 66.8499C36.3032 66.4654 36.1839 66.1529 35.9692 65.9246C35.8023 65.7203 35.5518 65.6122 35.2894 65.6122ZM35.1821 67.7031C34.7408 67.7031 34.4904 67.3906 34.4904 66.8739C34.4904 66.3452 34.7528 66.0087 35.1821 65.9967H35.2179C35.6353 65.9967 35.9096 66.3212 35.9096 66.8379C35.9096 67.3426 35.6592 67.5469 35.5876 67.5949C35.4803 67.667 35.3491 67.7031 35.1821 67.7031Z" fill="#0A0908"/>
<path id="Vector_26" d="M38.1399 65.6122C37.9372 65.6122 37.6986 65.6843 37.5436 65.8045C37.472 65.8645 37.4243 65.9126 37.3647 65.9727L37.3409 65.9967V65.6843H36.9354V69.073H37.3409V67.7391C37.5198 67.9554 37.7821 68.0636 38.0922 68.0636C38.7482 68.0636 39.1656 67.5829 39.1656 66.8499C39.1656 66.4654 39.0463 66.1529 38.8316 65.9246C38.6527 65.7203 38.4023 65.6122 38.1399 65.6122ZM38.0445 67.7031C37.6032 67.7031 37.3528 67.3906 37.3528 66.8739C37.3528 66.3452 37.6152 66.0087 38.0445 65.9967H38.0803C38.4977 65.9967 38.772 66.3212 38.772 66.8379C38.772 67.3426 38.5216 67.5469 38.45 67.5949C38.3307 67.667 38.1995 67.7031 38.0445 67.7031Z" fill="#0A0908"/>
</g>
<g id="Group_3">
<path id="Vector_27" d="M40.2034 64.5428H39.8098V67.9916H40.2034V64.5428Z" fill="#0A0908"/>
<path id="Vector_28" d="M41.3484 65.6844H40.9549V67.9916H41.3484V65.6844Z" fill="#0A0908"/>
<path id="Vector_29" d="M41.3484 64.5428H40.9549V65.0115H41.3484V64.5428Z" fill="#0A0908"/>
<path id="Vector_30" d="M43.0659 65.6121C42.7916 65.6121 42.5292 65.7083 42.3264 65.8885C42.0879 66.1048 41.9567 66.4293 41.9567 66.8138C41.9567 67.5829 42.3861 68.0515 43.0778 68.0515C43.5906 68.0515 43.9365 67.7871 44.1154 67.2824V67.2584L43.7099 67.2103H43.698V67.2224C43.6026 67.679 43.2805 67.7511 43.1017 67.7511C42.8989 67.7511 42.7319 67.679 42.6127 67.5588C42.4696 67.4026 42.3741 67.1623 42.3861 66.9219H44.1035V66.8979C44.1035 66.8018 44.1035 66.6335 44.0677 66.4293C43.9365 65.8284 43.4594 65.6121 43.0659 65.6121ZM42.4099 66.6095C42.4576 66.1889 42.6962 65.9246 43.042 65.9246C43.6026 65.9246 43.6741 66.5014 43.686 66.6095H42.4099Z" fill="#0A0908"/>
<path id="Vector_31" d="M45.9282 65.6606H45.9163C45.7612 65.6606 45.3677 65.6846 45.153 66.0812V65.6966H44.7475V68.0038H45.153V66.8983C45.153 66.706 45.153 66.5138 45.2484 66.3575C45.3557 66.1893 45.5346 66.0932 45.7612 66.0932C45.8209 66.0932 45.8686 66.0932 45.9163 66.1052H45.9282V65.6606Z" fill="#0A0908"/>
<path id="Vector_32" d="M48.9218 64.9633H48.5044V65.6843H48.1466V66.0207H48.5044V67.4988C48.5044 67.679 48.5044 67.8232 48.5998 67.9193C48.6714 67.9914 48.7787 68.0275 48.9576 68.0275C49.0769 68.0275 49.2081 68.0035 49.2916 67.9914H49.3273H49.3393V67.655H49.3273C49.2558 67.679 49.1484 67.7151 49.0769 67.7151C48.9218 67.7151 48.9218 67.6069 48.9218 67.3305V66.0327H49.3393V65.6963H48.9218V64.9633Z" fill="#0A0908"/>
<path id="Vector_33" d="M50.8536 65.6121C50.46 65.6121 50.15 65.7563 49.9472 66.0447C49.7922 66.261 49.7087 66.5494 49.7087 66.8619C49.7087 67.4146 50.0068 68.0635 50.8417 68.0635C51.5095 68.0635 51.9508 67.5708 51.9628 66.8378C51.9628 66.4653 51.8435 66.1288 51.6288 65.9125C51.438 65.7203 51.1756 65.6121 50.8536 65.6121ZM50.8417 67.7271C50.4004 67.7271 50.1619 67.4146 50.1619 66.8619C50.1619 66.0688 50.6032 65.9486 50.8775 65.9486C51.0683 65.9486 51.4141 66.0207 51.5095 66.5254C51.5215 66.5855 51.5334 66.6936 51.5334 66.8498C51.5096 67.6069 51.0921 67.7271 50.8417 67.7271Z" fill="#0A0908"/>
<path id="Vector_34" d="M57.8662 64.5428H57.2699L56.2204 67.3427L55.1828 64.5549V64.5428H54.5865V67.9916H55.0516L55.0039 65.2038L56.0296 67.9796L56.0415 67.9916H56.3993L57.4608 65.1677L57.4011 67.9796V67.9916H57.8662V64.5428Z" fill="#0A0908"/>
<path id="Vector_35" d="M59.6671 65.6121C59.3928 65.6121 59.1304 65.7083 58.9277 65.8885C58.6891 66.1048 58.558 66.4293 58.558 66.8138C58.558 67.5829 58.9873 68.0515 59.679 68.0515C60.1919 68.0515 60.5377 67.7871 60.7166 67.2824L60.7285 67.2584L60.323 67.2103H60.3111V67.2224C60.2038 67.679 59.8937 67.7511 59.7148 67.7511C59.5121 67.7511 59.3451 67.679 59.2258 67.5588C59.0827 67.4026 58.9873 67.1623 58.9992 66.9219H60.7285V66.8979C60.7285 66.8018 60.7285 66.6335 60.6808 66.4293C60.5258 65.8284 60.0607 65.6121 59.6671 65.6121ZM58.9992 66.6095C59.0469 66.1889 59.2855 65.9246 59.6313 65.9246C60.1919 65.9246 60.2634 66.5014 60.2753 66.6095H58.9992Z" fill="#0A0908"/>
<path id="Vector_36" d="M62.446 65.6121C62.3029 65.6121 61.957 65.6482 61.7542 65.9967V65.6842H61.3488V67.9914H61.7542V66.6816C61.7542 66.5134 61.7542 66.3451 61.9212 66.1769C62.0405 66.0567 62.1717 66.0087 62.3506 66.0087C62.5295 66.0087 62.7561 66.0928 62.8276 66.3211C62.8515 66.3932 62.8515 66.4653 62.8515 66.6936V68.0034H63.257V66.6335C63.257 66.4413 63.257 66.2971 63.2212 66.1529C63.09 65.7563 62.7203 65.6121 62.446 65.6121Z" fill="#0A0908"/>
<path id="Vector_37" d="M64.2468 19.6243H10.173V20.0569H64.2468V19.6243Z" fill="#0A0908"/>
<path id="Vector_38" d="M64.2468 58.7864H10.173V59.219H64.2468V58.7864Z" fill="#0A0908"/>
<path id="Vector_39" d="M62.0408 62.5599V62.8123H62.6848V64.5427H63.0307V62.8123H63.6627V62.5599H62.0408ZM65.7379 62.5599L65.1893 64.062L64.6049 62.5599H64.1279V64.5427H64.426V62.8363L65.0939 64.5427H65.2847L65.9168 62.8363V64.5427H66.215V62.5599H65.7379Z" fill="#0A0908"/>
<path id="Vector_40" d="M64.283 50.7479C63.8178 50.7479 63.4004 50.9282 63.0784 51.2406C62.7445 51.5771 62.5536 52.0217 62.5536 52.4783C62.5536 52.935 62.7325 53.3676 63.0546 53.692C63.3885 54.0285 63.8178 54.2087 64.271 54.2087C64.7242 54.2087 65.1536 54.0285 65.4994 53.692C65.8215 53.3676 66.0003 52.947 66.0003 52.4783C66.0003 52.0097 65.8215 51.5771 65.5114 51.2526C65.1774 50.9282 64.76 50.7479 64.283 50.7479ZM64.283 54.0044C63.8894 54.0044 63.5077 53.8482 63.2215 53.5598C62.9353 53.2714 62.7803 52.8869 62.7803 52.4903C62.7803 52.0818 62.9353 51.6972 63.2334 51.3968C63.5078 51.1084 63.8775 50.9642 64.2949 50.9642C64.7123 50.9642 65.082 51.1204 65.3802 51.4088C65.6664 51.6972 65.8215 52.0818 65.8215 52.5024C65.8215 52.9109 65.6664 53.2834 65.3802 53.5718C65.0701 53.8482 64.6885 54.0044 64.283 54.0044ZM64.3307 51.4689H63.6032V53.4517H63.9371V52.5865H64.3545L64.7719 53.4517H65.1417L64.7004 52.5384C64.9866 52.4903 65.1655 52.2861 65.1655 52.0097C65.1536 51.6372 64.8793 51.4689 64.3307 51.4689ZM63.9371 52.3702V51.6852H64.271C64.6408 51.6852 64.8196 51.7814 64.8196 52.0337C64.8196 52.2861 64.6527 52.3702 64.283 52.3702H63.9371Z" fill="#0A0908"/>
</g>
</g>
</svg>
