<svg width="125" height="41" viewBox="0 0 125 41" fill="none" xmlns="http://www.w3.org/2000/svg">
<g id="Frame" clip-path="url(#clip0_321_229)">
<g id="Group">
<path id="Vector" fill-rule="evenodd" clip-rule="evenodd" d="M9.27775 24.9476C6.81648 23.2221 5.13832 20.585 4.61244 17.6164C4.08656 14.6478 4.75605 11.5909 6.47362 9.11823C8.19119 6.64553 10.8161 4.95959 13.771 4.43127C16.726 3.90296 19.7687 4.57554 22.23 6.30108L24.6077 2.85903C22.3297 1.342 19.6558 0.536264 16.9227 0.54332C9.32793 0.54332 3.17285 6.6211 3.17285 14.1201C3.17574 16.324 3.71612 18.4936 4.7467 20.439C5.77729 22.3846 7.26669 24.0468 9.08466 25.2803C9.38058 25.4869 9.95248 25.8145 10.0503 25.7162C10.1481 25.6179 9.57872 25.1644 9.27775 24.9602V24.9476ZM20.3815 20.8781V16.7507H31.4275C30.9886 24.8545 24.1237 31.2925 15.7262 31.2925C7.08309 31.2925 0.070229 24.4789 0 16.0477V15.9217C0 15.7529 0.0752452 15.39 0.225736 15.39C0.376226 15.39 0.376226 15.8133 0.376226 15.9872C0.684732 23.9599 7.92835 29.9797 15.3626 29.9797C21.1765 29.9797 25.4178 26.2958 27.0883 20.8781H20.3815ZM24.7559 34.7929C24.9871 34.8907 25.1931 35.0406 25.3577 35.231L26.0825 34.7245C25.5357 34.1929 24.846 33.9988 24.0309 33.9988C22.7341 33.9988 21.5227 34.5834 21.5227 35.7627C21.5227 36.7858 22.3128 37.1662 23.3486 37.4509L23.5474 37.5074C24.7197 37.8392 25.2674 37.9943 25.2674 38.7109C25.2674 39.4114 24.4246 39.7717 23.6722 39.7717C23.0376 39.7717 22.413 39.5424 22.1071 39.0889L21.3546 39.5928C21.8563 40.1951 22.7642 40.447 23.612 40.447C24.9438 40.447 26.1979 39.8473 26.1979 38.6453C26.1979 37.4434 25.1696 37.1359 23.9982 36.826C22.827 36.5161 22.4507 36.2641 22.4507 35.6972C22.4507 34.9715 23.2533 34.6665 24.0233 34.6665C24.2739 34.6518 24.5245 34.6951 24.7559 34.7929ZM7.83385 34.15H6.96271V40.2882H7.83385V34.15ZM11.7332 34.15H12.8293L17.0857 39.2451H17.1033V34.15H17.9761V40.2882H16.875L12.6237 35.1831H12.6035V40.2882H11.7332V34.15ZM34.6379 34.8253H32.2075V40.2882H31.3371V34.8253H28.9118V34.1525H34.6379V34.8253ZM37.7405 34.15H38.6066V40.2882H37.7405V34.15ZM47.4296 34.8253H45.0017V40.2882H44.1363V34.8253H41.7059V34.1525H47.4296V34.8253ZM53.2787 40.4394C55.2852 40.4394 56.0377 39.2727 56.0377 37.9398L56.0552 34.1601H55.1824V37.8515C55.1824 38.8368 54.756 39.7742 53.2887 39.7742C51.8215 39.7742 51.3926 38.8368 51.3926 37.8515V34.1601H50.5197V37.9398C50.5197 39.2727 51.2722 40.4394 53.2787 40.4394ZM64.8288 34.8253H62.4009V40.2882H61.5306V34.8253H59.1077V34.1525H64.8288V34.8253ZM74.9809 35.946C74.7295 35.7773 74.434 35.6871 74.1316 35.6871C73.9314 35.6867 73.7331 35.726 73.5479 35.8027C73.3628 35.8794 73.1945 35.992 73.0527 36.134C72.9108 36.276 72.7981 36.4447 72.7213 36.6305C72.6443 36.8163 72.6045 37.0154 72.6042 37.2166C72.6032 37.5203 72.6919 37.8175 72.8592 38.0705C73.0264 38.3235 73.2646 38.521 73.5436 38.638C73.8227 38.7549 74.13 38.7859 74.4266 38.7273C74.7232 38.6687 74.9958 38.5229 75.21 38.3085C75.4241 38.0941 75.5701 37.8207 75.6294 37.5229C75.6887 37.225 75.6588 36.9163 75.5434 36.6356C75.4279 36.3548 75.2321 36.1149 74.9809 35.946ZM84.7564 36.8487H86.2286C87.1015 36.8487 87.7035 36.5211 87.7035 35.8408C87.7035 35.1604 87.1015 34.8328 86.2286 34.8328H84.7564V36.8487ZM83.8935 34.1601H86.0731C87.4175 34.1601 88.6415 34.5582 88.6415 35.8408C88.6415 37.1864 87.2746 37.5366 86.2362 37.5366H84.7564V40.3084H83.886L83.8935 34.1601ZM94.109 35.0848H94.1268L95.5745 38.1086H92.5842L94.109 35.0848ZM94.5505 34.1601H93.7332L90.4947 40.2984H91.4858L92.2385 38.7865H95.9025L96.6551 40.2984H97.6755L94.5505 34.1601ZM101.589 36.8487H102.371C103.334 36.8487 104.589 36.8487 104.589 35.8408C104.589 34.9563 103.663 34.8328 102.816 34.8328H101.589V36.8487ZM100.723 34.1601H102.597C104.017 34.1601 105.527 34.3339 105.527 35.8508C105.527 36.7378 104.832 37.3225 103.688 37.4661L105.77 40.2984H104.699L102.71 37.5265H101.589V40.2984H100.723V34.1601ZM109.126 34.15H110.002V40.2882H109.126V34.15ZM117.385 35.231C117.219 35.0405 117.012 34.8906 116.779 34.7928C116.547 34.695 116.295 34.6518 116.043 34.6665C115.273 34.6665 114.476 34.9715 114.476 35.6972C114.476 36.2641 114.855 36.5161 116.02 36.826C117.187 37.1359 118.221 37.4434 118.221 38.6453C118.221 39.8473 116.966 40.447 115.639 40.447C114.786 40.447 113.871 40.1951 113.382 39.5928L114.135 39.0889C114.448 39.5424 115.067 39.7717 115.697 39.7717C116.449 39.7717 117.3 39.4114 117.3 38.7109C117.3 37.9958 116.75 37.8398 115.584 37.5094L115.379 37.4509C114.34 37.1662 113.563 36.7858 113.563 35.7627C113.563 34.5834 114.767 33.9988 116.053 33.9988C116.871 33.9988 117.559 34.1929 118.105 34.7245L117.385 35.231ZM33.5043 10.8771L33.4892 10.4588L36.7172 10.4562V11.313L36.6821 20.7144C36.6821 24.7385 36.6821 29.3019 42.9726 29.3019C49.1452 29.3019 49.1452 23.8213 49.1452 20.1978C49.1452 14.939 49.1427 12.7342 49.0724 10.8746L49.0549 10.4538H51.3775V10.867C51.3628 11.7495 51.3672 12.8616 51.3721 14.0865C51.3747 14.7432 51.3775 15.4324 51.3775 16.1359C51.3926 18.2476 51.4075 20.6312 51.3775 22.7832C51.3148 28.2159 47.9638 31.4589 42.4183 31.4589C36.2832 31.4589 33.429 28.7198 33.429 22.8361L33.4515 20.3163L33.4716 18.3004L33.5043 14.6568L33.5067 14.444V14.4436V14.4426C33.5233 13.0216 33.5377 11.7939 33.5043 10.8771ZM65.0822 10.0858V10.4965C65.1173 12.9458 65.333 29.4506 65.2878 30.655L65.2678 31.0758H67.4023V30.6827V28.6492C67.4023 25.2324 67.4023 18.6632 67.4273 16.1484L68.0168 16.7457L68.0845 16.8147C72.829 21.6438 77.7332 26.6356 81.897 31.3278L82.0174 31.4639H83.1361V31.0507C83.1142 30.0387 83.037 18.033 83.0048 13.0289L83.0047 13.0203L83.0044 12.972L83.0035 12.8414C82.9959 11.649 82.991 10.8985 82.9906 10.8619V10.4587H80.6178V10.8745C80.6178 10.8865 80.6215 11.0508 80.6281 11.3392L80.6285 11.3584L80.6287 11.3685L80.6288 11.3705V11.371C80.6729 13.3153 80.8362 20.519 80.8687 25.0736C77.7186 21.9859 72.8867 16.9693 68.7061 12.6288L67.7007 11.5851L66.2535 10.0858H65.0822ZM89.6622 20.7723C89.6622 26.2932 92.5993 29.5916 97.523 29.5916C102.462 29.5916 105.411 26.2957 105.411 20.7723C105.411 15.2489 102.447 11.953 97.523 11.953C92.5993 11.953 89.6622 15.2515 89.6622 20.7723ZM86.2136 20.7723C86.2136 14.2813 90.6507 10.0858 97.523 10.0858C104.41 10.0858 108.865 14.2763 108.865 20.7723C108.865 27.2684 104.395 31.4639 97.523 31.4639C90.6507 31.4639 86.2136 27.2633 86.2136 20.7723ZM124.583 10.4588C121.777 10.552 119.028 10.6024 116.637 10.6024C114.247 10.6024 111.501 10.552 108.694 10.4588H108.276V12.5703L108.694 12.5553C110.23 12.4999 112.832 12.457 114.925 12.4519C114.975 14.2712 115.007 16.3778 115.007 18.3156V23.2569C115.007 25.5247 114.995 28.1428 114.872 30.6777L114.852 31.101H118.426L118.406 30.6777C118.283 28.1579 118.27 25.5222 118.27 23.2569V18.303C118.27 16.3652 118.301 14.2712 118.354 12.4393C120.445 12.4393 123.001 12.4872 124.583 12.5427L125 12.5553V10.4461L124.583 10.4588ZM56.5243 10.4588H59.8426V30.9474H56.5243V10.4588Z" fill="#0A0908"/>
</g>
</g>
<defs>
<clipPath id="clip0_321_229">
<rect width="125" height="39.8936" fill="white" transform="translate(0 0.553223)"/>
</clipPath>
</defs>
</svg>
