<svg width="76" height="76" viewBox="0 0 76 76" fill="none" xmlns="http://www.w3.org/2000/svg">
<g id="Frame" clip-path="url(#clip0_321_233)">
<path id="Vector" d="M24.8861 51.9333L27.792 46.3451H28.6861V52.9765H27.941V47.8353L25.2587 52.9765H24.6626L21.9802 47.8353V52.9765H21.2352V46.3451H22.1293L24.8861 51.9333ZM29.2822 53.051V46.4196H30.0273V53.051H29.2822ZM46.792 51.7843V46.3451H47.5371V52.9765H46.792L42.4704 47.6118V53.051H40.8312L39.9371 51.0392H36.8077L35.9136 53.051H30.7724V46.4196H31.5175V52.3804H35.3175L37.9999 46.4196H38.6704L41.6508 53.051V46.4196H42.3959L46.792 51.7843ZM37.0312 50.2941H39.5646L38.2979 47.4627L37.0312 50.2941ZM48.9528 50.7412C49.1018 51.0392 49.2508 51.3373 49.4744 51.6353C49.6979 51.8588 49.9959 52.0824 50.294 52.2314C50.592 52.3804 51.0391 52.4549 51.4861 52.4549C51.9332 52.4549 52.3057 52.3804 52.6038 52.2314C52.9018 52.0824 53.1999 51.8588 53.4234 51.6353C53.6469 51.4118 53.7959 51.1137 53.945 50.7412C54.094 50.4431 54.094 50.0706 54.094 49.698C54.094 49.3255 54.0195 49.0275 53.945 48.6549C53.7959 48.3569 53.6469 48.0588 53.4234 47.7608C53.1999 47.5373 52.9018 47.3137 52.6038 47.1647C52.3057 47.0157 51.8587 46.9412 51.4861 46.9412C51.0391 46.9412 50.6665 47.0157 50.294 47.1647C49.9959 47.3137 49.6979 47.5373 49.4744 47.7608C49.2508 47.9843 49.1018 48.2824 48.9528 48.6549C48.8038 48.9529 48.8038 49.3255 48.8038 49.698C48.8038 50.0706 48.8783 50.4431 48.9528 50.7412ZM54.7646 48.6549C54.8391 49.0275 54.9136 49.4 54.9136 49.7726C54.9136 50.0706 54.8391 50.4431 54.7646 50.8902C54.6155 51.2628 54.4665 51.7098 54.1685 52.0079C53.8704 52.3804 53.5724 52.6784 53.1254 52.902C52.6783 53.1255 52.1567 53.2745 51.4861 53.2745C50.8155 53.2745 50.294 53.1255 49.8469 52.902C49.3999 52.6784 49.0273 52.3804 48.8038 52.0079C48.5057 51.6353 48.3567 51.2628 48.2077 50.8902C48.1332 50.5177 48.0587 50.1451 48.0587 49.7726C48.0587 49.4 48.1332 49.102 48.2077 48.6549C48.3567 48.2824 48.5057 47.8353 48.8038 47.5373C49.1018 47.1647 49.3999 46.8667 49.8469 46.6431C50.294 46.4196 50.8155 46.2706 51.4861 46.2706C52.1567 46.2706 52.6783 46.4196 53.1254 46.6431C53.5724 46.8667 53.945 47.1647 54.1685 47.5373C54.4665 47.8353 54.6901 48.2079 54.7646 48.6549ZM37.8508 1.34118C17.5842 1.34118 1.04299 17.8078 1.04299 38.0745C1.04299 58.3412 17.5842 74.8078 37.8508 74.8078C58.192 74.8078 74.6587 58.3412 74.6587 38.0745C74.7332 17.8078 58.192 1.34118 37.8508 1.34118ZM37.8508 75.4784C17.1371 75.4784 0.372406 58.7137 0.372406 38.0745C0.372406 17.4353 17.2116 0.670593 37.8508 0.670593C58.5646 0.670593 75.3293 17.4353 75.3293 38.0745C75.4038 58.7137 58.5646 75.4784 37.8508 75.4784ZM27.0469 64.6L26.5999 65.9412L27.7175 66.7608H26.3018L25.8548 68.102L25.4077 66.7608H23.992L25.1097 65.9412L24.6626 64.6L25.7802 65.4196L27.0469 64.6ZM21.5332 61.6196L21.0861 62.9608L22.2038 63.7804H20.7881L20.341 65.1216L19.894 63.7804H18.4783L19.5959 62.9608L19.1489 61.6196L20.2665 62.4392L21.5332 61.6196ZM56.5528 61.6196L56.1057 62.9608L57.2234 63.7804H55.8077L55.3606 65.1216L54.9136 63.7804H53.4979L54.6155 62.9608L54.1685 61.6196L55.2861 62.4392L56.5528 61.6196ZM33.0822 66.3137L32.6352 67.6549L33.7528 68.4745H32.3371L31.8901 69.8157L31.443 68.4745H30.0273L31.145 67.6549L30.7724 66.3137L31.8901 67.1333L33.0822 66.3137ZM39.1175 66.7608L38.6704 68.102L39.7881 68.9216H38.3724L37.9254 70.2628L37.4783 68.9216H36.0626L37.1803 68.102L36.7332 66.7608L37.8508 67.5804L39.1175 66.7608ZM45.2273 66.3137L44.7803 67.6549L45.8979 68.4745H44.4822L44.0352 69.8157L43.5881 68.4745H42.1724L43.2901 67.6549L42.992 66.3137L44.1097 67.1333L45.2273 66.3137ZM51.2626 64.6L50.8155 65.9412L51.9332 66.7608H50.5175L50.0704 68.102L49.6234 66.7608H48.2077L49.3253 65.9412L48.8783 64.6L49.9959 65.4196L51.2626 64.6ZM37.9254 14.6039C24.9606 14.6039 14.3802 25.1098 14.3802 38.0745C14.3802 51.0392 24.9606 61.5451 37.9254 61.5451C50.8901 61.5451 61.4704 51.0392 61.4704 38.0745C61.4704 25.1098 50.8901 14.6039 37.9254 14.6039ZM37.9254 62.2902C24.5881 62.2902 13.7097 51.4118 13.7097 38.0745C13.7097 24.7373 24.5881 13.9333 37.9254 13.9333C51.2626 13.9333 62.141 24.8118 62.141 38.0745C62.141 51.4118 51.2626 62.2902 37.9254 62.2902ZM21.0116 43.9608V24.5882C21.0116 24.5882 21.0116 23.9922 21.4587 23.4706C21.4587 23.4706 21.7567 23.0235 22.2783 23.0235H25.9293C25.9293 23.0235 28.1646 22.8745 30.4744 25.0353C30.4744 25.0353 32.4861 27.2706 32.4861 29.5804V39.1177C32.4861 39.1177 32.4861 41.502 30.4744 43.5882C30.4744 43.5882 28.3881 45.5255 26.6744 45.5255C26.6744 45.5255 25.1097 45.451 25.1097 43.9608C25.1097 43.9608 25.0352 42.7686 26.3018 42.3216C27.643 41.8745 29.2077 40.6078 29.2077 38.8941V29.6549C29.2077 29.6549 29.1332 28.0902 27.941 27.1216C27.941 27.1216 26.9724 26.1529 25.6312 26.1529H24.141V43.9608C24.141 43.9608 24.141 45.6 22.5018 45.6C21.0116 45.6 21.0116 43.9608 21.0116 43.9608ZM34.0508 44.1098V24.4392C34.0508 24.4392 34.1253 22.949 35.6155 22.949C37.1057 22.949 37.2548 24.4392 37.2548 24.4392V44.1098C37.2548 44.1098 37.1803 45.6 35.6901 45.6C34.1254 45.6 34.0508 44.1098 34.0508 44.1098ZM51.6352 44.1098V24.4392C51.6352 24.4392 51.7097 22.949 53.1999 22.949C54.6901 22.949 54.8391 24.4392 54.8391 24.4392V44.1098C54.8391 44.1098 54.7646 45.6 53.2744 45.6C51.7097 45.6 51.6352 44.1098 51.6352 44.1098ZM38.6704 44.1843V24.4392C38.6704 24.4392 38.894 22.949 40.0116 22.949H43.6626C43.6626 22.949 46.0469 23.0235 48.0587 24.7373C50.0704 26.451 50.145 29.1333 50.145 29.1333C50.145 29.1333 50.0704 30.9961 49.3999 32.0392C48.7293 33.0824 47.9842 33.6784 47.9842 33.6784C47.9842 33.6784 50.592 35.3922 50.592 38.8196C50.592 42.2471 47.9842 44.6314 45.2273 45.451C45.2273 45.451 43.7371 45.9726 42.9175 44.6314C42.9175 44.6314 42.3959 43.2902 43.8116 42.4706C43.8116 42.4706 45.4508 42.098 46.2704 41.2784C47.0901 40.3843 47.3881 39.5647 47.3881 38.8941C47.3881 38.2235 47.0155 36.0627 44.5567 35.3922C44.5567 35.3922 42.843 35.0941 42.843 33.7529C42.843 32.4118 44.0352 32.1882 44.4822 32.0392C44.9293 31.9647 47.0155 31.0706 47.0155 29.2824C47.0155 27.4941 45.0783 26.302 43.5881 26.302H42.0234V44.1843C42.0234 44.1843 41.8744 45.6745 40.3842 45.6745C38.8195 45.6 38.6704 44.1843 38.6704 44.1843Z" fill="#0A0908"/>
</g>
<defs>
<clipPath id="clip0_321_233">
<rect width="76" height="76" fill="white"/>
</clipPath>
</defs>
</svg>
