<svg width="14" height="14" viewBox="0 0 14 14" fill="none" xmlns="http://www.w3.org/2000/svg">
<path d="M4.33254 0.600098C2.27441 0.600098 0.60025 2.27581 0.60025 4.33447V9.66781C0.60025 11.7259 2.27596 13.4001 4.33463 13.4001H9.66796C11.7261 13.4001 13.4002 11.7244 13.4002 9.66572V4.33239C13.4002 2.27426 11.7245 0.600098 9.66587 0.600098H4.33254ZM10.7336 2.73343C11.028 2.73343 11.2669 2.97236 11.2669 3.26676C11.2669 3.56116 11.028 3.8001 10.7336 3.8001C10.4392 3.8001 10.2002 3.56116 10.2002 3.26676C10.2002 2.97236 10.4392 2.73343 10.7336 2.73343ZM7.00025 3.8001C8.76505 3.8001 10.2002 5.2353 10.2002 7.0001C10.2002 8.7649 8.76505 10.2001 7.00025 10.2001C5.23545 10.2001 3.80025 8.7649 3.80025 7.0001C3.80025 5.2353 5.23545 3.8001 7.00025 3.8001ZM7.00025 4.86676C6.43445 4.86676 5.89183 5.09153 5.49176 5.4916C5.09168 5.89168 4.86692 6.4343 4.86692 7.0001C4.86692 7.56589 5.09168 8.10851 5.49176 8.50859C5.89183 8.90867 6.43445 9.13343 7.00025 9.13343C7.56604 9.13343 8.10867 8.90867 8.50874 8.50859C8.90882 8.10851 9.13358 7.56589 9.13358 7.0001C9.13358 6.4343 8.90882 5.89168 8.50874 5.4916C8.10867 5.09153 7.56604 4.86676 7.00025 4.86676Z" fill="#484848"/>
</svg>
